<?xml version="1.0" encoding="utf-8"?>
<!-- Generator: Adobe Illustrator 24.3.0, SVG Export Plug-In . SVG Version: 6.00 Build 0)  -->
<svg version="1.1" id="Layer_1" xmlns="http://www.w3.org/2000/svg" xmlns:xlink="http://www.w3.org/1999/xlink" x="0px" y="0px"
	 viewBox="0 0 1925.3 3187.6" style="enable-background:new 0 0 1925.3 3187.6;" xml:space="preserve">
<style type="text/css">
	.st0{fill:#5C6CA6;stroke:#FFFFFF;stroke-width:1.0229;stroke-miterlimit:10;}
	.st1{opacity:0.18;}
	.st2{fill:#FFFFFF;stroke:#FFFFFF;stroke-width:1.0057;stroke-miterlimit:10;}
	.st3{fill:none;stroke:#FFFFFF;stroke-width:3.9411;stroke-miterlimit:10;}
	.st4{fill:#FFFFFF;stroke:#FFFFFF;stroke-width:0.9752;stroke-miterlimit:10;}
	.st5{fill:#FFFFFC;stroke:#FFFFFF;stroke-width:1.0057;stroke-miterlimit:10;}
	.st6{fill:#A4B0DD;}
	.st7{fill:#FFFFFF;stroke:#FFFFFF;stroke-width:1.0057;stroke-miterlimit:10.0003;}
	.st8{clip-path:url(#SVGID_2_);}
	.st9{fill:#FFFFFF;}
	.st10{fill:#889BD1;}
	.st11{fill:#FFA6D5;}
	.st12{fill:#DB82A6;}
	.st13{fill:#FFDE80;}
	.st14{fill:#9FFF9F;}
	.st15{fill:#5FFFDC;}
</style>
<rect x="-4.1" y="-6" class="st0" width="1934.6" height="3196.5"/>
<g class="st1">
	<path class="st2" d="M1456.1,254.8c0,0-30-68,6-114.1s83.9,72.8,83.9,72.8"/>
	<path class="st2" d="M1652.6,243.7c0,0,43.5-60.2,101.5-52.5s-20.5,109.2-20.5,109.2"/>
	<path class="st2" d="M1768.1,196.7c6.9,4.2,10.6,11.6,9,23.5c-7.9,58-72.2,96.3-72.2,96.3"/>
	<circle class="st2" cx="1585.8" cy="354.4" r="175.2"/>
	<g>
		<circle class="st2" cx="1481.8" cy="298.7" r="12.3"/>
		<circle class="st2" cx="1605.5" cy="326.8" r="12.3"/>
		<path class="st3" d="M1517.4,316.8c0,0,3.5,28,24.5,4.7c0,0,5.8,25.7,23.4,5.8"/>
	</g>
	<g>
		<ellipse class="st2" cx="1458.7" cy="381.6" rx="16.6" ry="18.7"/>
		<ellipse class="st2" cx="1481.2" cy="419.6" rx="10.2" ry="11.8"/>
		<ellipse class="st2" cx="1669.2" cy="382.1" rx="15" ry="17.1"/>
		<ellipse class="st2" cx="1634.4" cy="441" rx="35.9" ry="32.1"/>
		<path class="st4" d="M1584.1,183.9c-3.4,0-6.8,0.1-10.2,0.3c75.5,4.7,135.3,67.4,135.3,144.1c0,79.7-64.6,144.4-144.4,144.4
			c-79.7,0-144.4-64.6-144.4-144.4c0-12.5,1.6-24.5,4.5-36.1c-7.6,19.4-11.8,40.5-11.8,62.5c0,94.4,76.5,170.9,170.9,170.9
			s170.9-76.5,170.9-170.9S1678.4,183.9,1584.1,183.9z"/>
	</g>
</g>
<path class="st5" d="M1499.5,295.7c0,0-19.3-43.7,3.9-73.4s53.9,46.8,53.9,46.8"/>
<path class="st5" d="M1625.8,288.6c0,0,28-38.7,65.3-33.7c37.3,5-13.2,70.2-13.2,70.2"/>
<path class="st6" d="M1699.2,256.7c4.7,2.7,7.3,7.6,6.5,15.5c-4.1,38.9-46.3,65.7-46.3,65.7"/>
<circle class="st5" cx="1582.9" cy="359.8" r="112.6"/>
<g>
	<ellipse class="st6" cx="1501.3" cy="377.6" rx="10.8" ry="12.2"/>
	<ellipse class="st6" cx="1515.9" cy="402.3" rx="6.6" ry="7.6"/>
	<ellipse class="st6" cx="1637.8" cy="378" rx="9.7" ry="11.1"/>
	<ellipse class="st6" cx="1615.2" cy="416.2" rx="23.3" ry="20.8"/>
	<path class="st6" d="M1582.6,246c-2.3,0-4.6,0.1-6.8,0.2c50.5,3.1,90.5,45.1,90.5,96.3c0,53.3-43.2,96.6-96.6,96.6
		c-53.3,0-96.6-43.2-96.6-96.6c0-8.3,1.1-16.4,3-24.1c-5.1,13-7.9,27.1-7.9,41.8c0,63.1,51.2,114.3,114.3,114.3
		c63.1,0,114.3-51.2,114.3-114.3S1645.7,246,1582.6,246z"/>
</g>
<g>
	
		<ellipse transform="matrix(9.913218e-02 -0.9951 0.9951 9.913218e-02 160.1622 622.8911)" class="st7" cx="424.1" cy="223" rx="28.6" ry="6.3"/>
	
		<ellipse transform="matrix(9.913218e-02 -0.9951 0.9951 9.913218e-02 161.0135 623.0088)" class="st7" cx="424.6" cy="222.6" rx="5.8" ry="22.8"/>
</g>
<ellipse transform="matrix(9.913218e-02 -0.9951 0.9951 9.913218e-02 -505.9474 1108.0784)" class="st7" cx="359" cy="833.5" rx="3.2" ry="2.7"/>
<g>
	
		<ellipse transform="matrix(9.913218e-02 -0.9951 0.9951 9.913218e-02 31.6794 1000.0484)" class="st7" cx="568.2" cy="482.5" rx="13" ry="3.4"/>
	
		<ellipse transform="matrix(9.913218e-02 -0.9951 0.9951 9.913218e-02 32.1174 1000.0909)" class="st7" cx="568.4" cy="482.3" rx="2.6" ry="12.3"/>
</g>
<ellipse transform="matrix(9.913218e-02 -0.9951 0.9951 9.913218e-02 -148.1971 970.1631)" class="st7" cx="461.7" cy="566.9" rx="3.2" ry="2.7"/>
<g>
	
		<ellipse transform="matrix(9.913218e-02 -0.9951 0.9951 9.913218e-02 1045.2963 1607.2196)" class="st7" cx="1410.3" cy="226.3" rx="28.6" ry="6.3"/>
	
		<ellipse transform="matrix(9.913218e-02 -0.9951 0.9951 9.913218e-02 1046.1476 1607.3373)" class="st7" cx="1410.8" cy="225.9" rx="5.8" ry="22.8"/>
</g>
<ellipse transform="matrix(9.913218e-02 -0.9951 0.9951 9.913218e-02 174.9432 512.1949)" class="st7" cx="370.3" cy="159.5" rx="2.3" ry="2.2"/>
<g>
	
		<ellipse transform="matrix(9.913218e-02 -0.9951 0.9951 9.913218e-02 319.5278 786.3467)" class="st7" cx="594.1" cy="216.7" rx="13" ry="3.4"/>
	
		<ellipse transform="matrix(9.913218e-02 -0.9951 0.9951 9.913218e-02 319.9656 786.3895)" class="st7" cx="594.3" cy="216.5" rx="2.6" ry="12.3"/>
</g>
<ellipse transform="matrix(9.913218e-02 -0.9951 0.9951 9.913218e-02 329.3711 407.1968)" class="st7" cx="389.6" cy="21.7" rx="3.4" ry="3.1"/>
<ellipse transform="matrix(9.913218e-02 -0.9951 0.9951 9.913218e-02 754.1153 1667.4861)" class="st7" cx="1298" cy="417.3" rx="3.4" ry="3.1"/>
<ellipse transform="matrix(9.913218e-02 -0.9951 0.9951 9.913218e-02 332.9216 648.3526)" class="st7" cx="524.5" cy="140.3" rx="2.3" ry="2.2"/>
<ellipse transform="matrix(0.6919 -0.722 0.722 0.6919 242.9578 978.0182)" class="st2" cx="1267.4" cy="204.3" rx="3.2" ry="2.7"/>
<g>
	
		<ellipse transform="matrix(0.6919 -0.722 0.722 0.6919 -25.9686 1207.7092)" class="st2" cx="1402.1" cy="634.3" rx="13" ry="3.4"/>
	
		<ellipse transform="matrix(0.6919 -0.722 0.722 0.6919 -25.8455 1208.025)" class="st2" cx="1402.5" cy="634.3" rx="2.6" ry="12.3"/>
</g>
<ellipse transform="matrix(0.6919 -0.722 0.722 0.6919 -33.5437 1133.8146)" class="st2" cx="1311.7" cy="606.2" rx="3.2" ry="2.7"/>
<ellipse transform="matrix(9.913218e-02 -0.9951 0.9951 9.913218e-02 1023.2769 1774.8008)" class="st7" cx="1491.8" cy="322.3" rx="3.4" ry="3.1"/>
<g>
	
		<ellipse transform="matrix(0.6919 -0.722 0.722 0.6919 230.4012 1378.1383)" class="st2" cx="1729.9" cy="419.1" rx="13" ry="3.4"/>
	
		<ellipse transform="matrix(0.6919 -0.722 0.722 0.6919 230.4785 1378.353)" class="st2" cx="1730.2" cy="419.1" rx="2.6" ry="12.3"/>
</g>
<ellipse transform="matrix(0.6919 -0.722 0.722 0.6919 134.8352 1188.4396)" class="st2" cx="1459.9" cy="436.2" rx="3.2" ry="2.7"/>
<ellipse transform="matrix(0.6919 -0.722 0.722 0.6919 28.1632 1334.8334)" class="st2" cx="1578.1" cy="634.4" rx="2.3" ry="2.2"/>
<ellipse transform="matrix(0.6919 -0.722 0.722 0.6919 430.1734 1337.5258)" class="st2" cx="1782.2" cy="164.7" rx="2.3" ry="2.2"/>
<g>
	
		<ellipse transform="matrix(0.6919 -0.722 0.722 0.6919 133.3166 1449.9092)" class="st2" cx="1765.5" cy="568.8" rx="13" ry="3.4"/>
	
		<ellipse transform="matrix(0.6919 -0.722 0.722 0.6919 133.394 1450.1238)" class="st2" cx="1765.8" cy="568.8" rx="2.6" ry="12.3"/>
</g>
<ellipse transform="matrix(0.6919 -0.722 0.722 0.6919 81.7296 862.0609)" class="st2" cx="1050.9" cy="335.3" rx="3.4" ry="3.1"/>
<ellipse transform="matrix(0.6919 -0.722 0.722 0.6919 -197.9366 1191.2738)" class="st2" cx="1296.8" cy="827.6" rx="3.4" ry="3.1"/>
<ellipse transform="matrix(0.6919 -0.722 0.722 0.6919 11.462 1455.6566)" class="st2" cx="1711.3" cy="714.4" rx="2.3" ry="2.2"/>
<g>
	
		<ellipse transform="matrix(9.913218e-02 -0.9951 0.9951 9.913218e-02 -956.486 1534.8467)" class="st7" cx="369.4" cy="1295.7" rx="31.5" ry="6.9"/>
	
		<ellipse transform="matrix(9.913218e-02 -0.9951 0.9951 9.913218e-02 -955.462 1534.9819)" class="st7" cx="370" cy="1295.2" rx="6.4" ry="25.1"/>
</g>
<g>
	
		<ellipse transform="matrix(9.913218e-02 -0.9951 0.9951 9.913218e-02 -1359.8456 2187.7725)" class="st7" cx="528.4" cy="1844.9" rx="14.4" ry="3.7"/>
	
		<ellipse transform="matrix(9.913218e-02 -0.9951 0.9951 9.913218e-02 -1359.3798 2187.8662)" class="st7" cx="528.6" cy="1844.7" rx="2.9" ry="13.5"/>
</g>
<ellipse transform="matrix(9.913218e-02 -0.9951 0.9951 9.913218e-02 -1558.1146 2154.8711)" class="st7" cx="411" cy="1938" rx="3.5" ry="3"/>
<g>
	
		<ellipse transform="matrix(9.913218e-02 -0.9951 0.9951 9.913218e-02 -39.9598 3080.6589)" class="st7" cx="1681.4" cy="1562.4" rx="31.5" ry="6.9"/>
	
		<ellipse transform="matrix(9.913218e-02 -0.9951 0.9951 9.913218e-02 -39.1238 3080.7659)" class="st7" cx="1681.9" cy="1562" rx="6.4" ry="25.1"/>
</g>
<g>
	
		<ellipse transform="matrix(9.913218e-02 -0.9951 0.9951 9.913218e-02 -929.9854 1850.376)" class="st7" cx="556.9" cy="1438.8" rx="14.4" ry="3.7"/>
	
		<ellipse transform="matrix(9.913218e-02 -0.9951 0.9951 9.913218e-02 -929.6276 1850.5494)" class="st7" cx="557.2" cy="1438.7" rx="2.9" ry="13.5"/>
</g>
<ellipse transform="matrix(9.913218e-02 -0.9951 0.9951 9.913218e-02 -563.3784 2923.6147)" class="st7" cx="1333" cy="1773" rx="3.7" ry="3.4"/>
<ellipse transform="matrix(0.6919 -0.722 0.722 0.6919 -710.2999 1411.9974)" class="st2" cx="1299.3" cy="1538.2" rx="3.5" ry="3"/>
<g>
	
		<ellipse transform="matrix(0.6919 -0.722 0.722 0.6919 -1006.7336 1665.283)" class="st2" cx="1447.8" cy="2012.2" rx="14.4" ry="3.7"/>
	
		<ellipse transform="matrix(0.6919 -0.722 0.722 0.6919 -1006.671 1665.5112)" class="st2" cx="1448.1" cy="2012.3" rx="2.9" ry="13.5"/>
</g>
<ellipse transform="matrix(0.6919 -0.722 0.722 0.6919 -1015.175 1583.7548)" class="st2" cx="1348.1" cy="1981.3" rx="3.5" ry="3"/>
<ellipse transform="matrix(9.913218e-02 -0.9951 0.9951 9.913218e-02 -266.6891 3042.0396)" class="st7" cx="1546.7" cy="1668.3" rx="3.7" ry="3.4"/>
<g>
	
		<ellipse transform="matrix(0.6919 -0.722 0.722 0.6919 -724.1802 1853.1869)" class="st2" cx="1809.3" cy="1775.1" rx="14.4" ry="3.7"/>
	
		<ellipse transform="matrix(0.6919 -0.722 0.722 0.6919 -724.0441 1853.4426)" class="st2" cx="1809.6" cy="1775.1" rx="2.9" ry="13.5"/>
</g>
<ellipse transform="matrix(0.6919 -0.722 0.722 0.6919 -829.4638 1644.0282)" class="st2" cx="1511.5" cy="1793.9" rx="3.5" ry="3"/>
<ellipse transform="matrix(0.6919 -0.722 0.722 0.6919 -947.0775 1805.4116)" class="st2" cx="1641.8" cy="2012.4" rx="2.6" ry="2.4"/>
<ellipse transform="matrix(0.6919 -0.722 0.722 0.6919 -503.8953 1808.4055)" class="st2" cx="1866.9" cy="1494.6" rx="2.6" ry="2.4"/>
<g>
	
		<ellipse transform="matrix(0.6919 -0.722 0.722 0.6919 -831.1341 1932.2325)" class="st2" cx="1848.4" cy="1939.9" rx="14.4" ry="3.7"/>
	
		<ellipse transform="matrix(0.6919 -0.722 0.722 0.6919 -831.0257 1932.5619)" class="st2" cx="1848.8" cy="1940" rx="2.9" ry="13.5"/>
</g>
<ellipse transform="matrix(0.6919 -0.722 0.722 0.6919 -887.9819 1284.1664)" class="st2" cx="1060.6" cy="1682.5" rx="3.7" ry="3.4"/>
<ellipse transform="matrix(0.6919 -0.722 0.722 0.6919 -965.53 1938.6045)" class="st2" cx="1788.7" cy="2100.6" rx="2.6" ry="2.4"/>
<g>
	
		<ellipse transform="matrix(9.913218e-02 -0.9951 0.9951 9.913218e-02 -1477.0073 4406.4541)" class="st7" cx="1695.1" cy="3019" rx="31.5" ry="6.9"/>
	
		<ellipse transform="matrix(9.913218e-02 -0.9951 0.9951 9.913218e-02 -1477.9509 4406.4263)" class="st7" cx="1694.6" cy="3019.5" rx="6.4" ry="25.1"/>
</g>
<g>
	
		<ellipse transform="matrix(9.913218e-02 -0.9951 0.9951 9.913218e-02 -1610.2974 4046.9109)" class="st7" cx="1429.9" cy="2912.8" rx="14.4" ry="3.7"/>
	
		<ellipse transform="matrix(9.913218e-02 -0.9951 0.9951 9.913218e-02 -1610.843 4046.7095)" class="st7" cx="1429.5" cy="2913" rx="2.9" ry="13.5"/>
</g>
<ellipse transform="matrix(9.913218e-02 -0.9951 0.9951 9.913218e-02 -1412.0283 4079.8125)" class="st7" cx="1547.2" cy="2819.8" rx="3.5" ry="3"/>
<g>
	
		<ellipse transform="matrix(9.913218e-02 -0.9951 0.9951 9.913218e-02 -1874.6691 1990.3413)" class="st7" cx="161.9" cy="2030.5" rx="31.5" ry="6.9"/>
	
		<ellipse transform="matrix(9.913218e-02 -0.9951 0.9951 9.913218e-02 -1875.5851 1990.1263)" class="st7" cx="161.3" cy="2030.9" rx="6.4" ry="25.1"/>
</g>
<g>
	
		<ellipse transform="matrix(9.913218e-02 -0.9951 0.9951 9.913218e-02 -1928.006 4282.7778)" class="st7" cx="1401.3" cy="3206.2" rx="14.4" ry="3.7"/>
	
		<ellipse transform="matrix(9.913218e-02 -0.9951 0.9951 9.913218e-02 -1928.3639 4282.6045)" class="st7" cx="1401" cy="3206.3" rx="2.9" ry="13.5"/>
</g>
<ellipse transform="matrix(9.913218e-02 -0.9951 0.9951 9.913218e-02 -2406.7644 3311.0688)" class="st7" cx="625.3" cy="2984.8" rx="3.7" ry="3.4"/>
<ellipse transform="matrix(0.6919 -0.722 0.722 0.6919 -2121.5525 1467.7678)" class="st2" cx="659" cy="3219.7" rx="3.5" ry="3"/>
<g>
	
		<ellipse transform="matrix(0.6919 -0.722 0.722 0.6919 -1824.8816 1214.3088)" class="st2" cx="510.3" cy="2745.3" rx="14.4" ry="3.7"/>
	
		<ellipse transform="matrix(0.6919 -0.722 0.722 0.6919 -1824.9454 1214.0824)" class="st2" cx="510" cy="2745.3" rx="2.9" ry="13.5"/>
</g>
<ellipse transform="matrix(0.6919 -0.722 0.722 0.6919 -1816.5415 1295.8831)" class="st2" cx="610.1" cy="2776.3" rx="3.5" ry="3"/>
<ellipse transform="matrix(9.913218e-02 -0.9951 0.9951 9.913218e-02 -2703.5337 3192.5361)" class="st7" cx="411.4" cy="3089.4" rx="3.7" ry="3.4"/>
<g>
	
		<ellipse transform="matrix(0.6919 -0.722 0.722 0.6919 -2107.4631 1026.4789)" class="st2" cx="149" cy="2982.5" rx="14.4" ry="3.7"/>
	
		<ellipse transform="matrix(0.6919 -0.722 0.722 0.6919 -2107.5991 1026.223)" class="st2" cx="148.6" cy="2982.5" rx="2.9" ry="13.5"/>
</g>
<ellipse transform="matrix(0.6919 -0.722 0.722 0.6919 -2002.1793 1235.6375)" class="st2" cx="446.7" cy="2963.7" rx="3.5" ry="3"/>
<ellipse transform="matrix(0.6919 -0.722 0.722 0.6919 -1884.5657 1074.254)" class="st2" cx="316.4" cy="2745.2" rx="2.6" ry="2.4"/>
<ellipse transform="matrix(0.6919 -0.722 0.722 0.6919 -2327.957 1071.3595)" class="st2" cx="91.3" cy="3263.3" rx="2.6" ry="2.4"/>
<g>
	
		<ellipse transform="matrix(0.6919 -0.722 0.722 0.6919 -2000.4813 947.3596)" class="st2" cx="109.8" cy="2817.6" rx="14.4" ry="3.7"/>
	
		<ellipse transform="matrix(0.6919 -0.722 0.722 0.6919 -2000.6174 947.1038)" class="st2" cx="109.4" cy="2817.6" rx="2.9" ry="13.5"/>
</g>
<ellipse transform="matrix(0.6919 -0.722 0.722 0.6919 -1943.6613 1595.4993)" class="st2" cx="897.6" cy="3075.1" rx="3.7" ry="3.4"/>
<ellipse transform="matrix(0.6919 -0.722 0.722 0.6919 -1866.1132 941.0612)" class="st2" cx="169.6" cy="2657" rx="2.6" ry="2.4"/>
<g>
	<path d="M1501,309.6c0.5-4.7,5.3-9.2,11.4-8.3c5.4,0.9,9.1,6,8.3,11.4c-0.9,5.4-5.9,9.1-11.4,8.3C1503.2,320,1500,314.3,1501,309.6
		z"/>
	<path d="M1583.1,332.6c-5.5-0.9-9.1-5.9-8.3-11.4c0.9-5.5,5.9-9.1,11.4-8.3c5.5,0.9,9.1,5.9,8.3,11.4
		C1593.6,329.8,1588.5,333.5,1583.1,332.6z"/>
	<path d="M1542.2,331.3c-0.8,0.4-1.5,0.8-2.2,1.1c-4.7,2-9.8-1.3-10-6.3c0-0.4,0-0.8,0.1-1.1c0.3-0.9,1.1-1.4,2-1.4
		c0.8,0,1.6,0.6,1.8,1.5c0.1,0.4,0.1,0.7,0.2,1.1c0.4,2.2,2.4,3.4,4.4,2.4c1-0.4,1.8-1.1,2.7-1.6c1.2-0.7,2.2-0.7,3.1,0.2
		c0.3,0.3,0.5,0.7,0.8,1.1s0.5,0.9,0.8,1.2c1.4,1.8,4.1,1.6,5.3-0.4c0.2-0.3,0.3-0.7,0.5-1c0.6-1.1,1.7-1.4,2.7-1
		c1,0.5,1.4,1.6,0.9,2.7c-1.1,2.8-3.1,4.5-6.1,4.9c-2.8,0.4-5.1-0.7-6.8-2.9c-0.1-0.1-0.2-0.2-0.3-0.4
		C1542.4,331.4,1542.3,331.3,1542.2,331.3z"/>
	<path d="M1623.7,325.8c1.6,0.2,2.5,1.2,2.4,2.6c-0.2,1.3-1.2,2.1-2.7,2c-2.2,0-4.3-0.1-6.5-0.1c-1.6,0-3.1,0-4.7,0
		c-0.4,0-0.9-0.1-1.3-0.2c-0.9-0.4-1.5-1.3-1.4-2.2c0-0.9,0.7-1.7,1.6-2c0.4-0.1,0.7-0.2,1.1-0.2c3.6,0,7.2,0,10.8,0
		C1623.2,325.7,1623.5,325.8,1623.7,325.8z"/>
	<path d="M1620.1,344.6c-0.2-0.1-0.6-0.2-1-0.4c-2.9-1.4-5.8-2.9-8.7-4.3c-0.4-0.2-0.7-0.4-1-0.7c-0.8-0.7-1-1.8-0.5-2.7
		c0.5-0.9,1.4-1.4,2.5-1.2c0.4,0.1,0.8,0.2,1.2,0.4c2.9,1.5,5.8,2.9,8.8,4.4c0.3,0.2,0.6,0.3,0.9,0.5c0.8,0.7,1.1,1.8,0.7,2.7
		C1622.4,344.3,1621.4,344.8,1620.1,344.6z"/>
	<path d="M1488.4,324.7c-1.3-0.2-2.1-1-2.2-1.9c-0.1-1,0.4-2,1.4-2.4c0.5-0.2,1-0.3,1.5-0.4c2.6-0.6,5.1-1.1,7.7-1.7
		c1.4-0.3,2.6,0.3,3,1.5s-0.2,2.5-1.6,3c-1.6,0.5-3.2,0.8-4.8,1.2c-1.3,0.3-2.7,0.5-4,0.8C1488.9,324.6,1488.5,324.6,1488.4,324.7z"
		/>
	<path d="M1492.7,305.4c1.1,0.2,2.2,0.3,3.3,0.5c0.5,0.1,1,0.2,1.4,0.4c0.9,0.4,1.3,1.3,1.2,2.3c-0.1,1-0.8,1.8-1.8,2
		c-0.4,0.1-0.9,0.1-1.4,0c-2.4-0.4-4.7-0.9-7-1.4c-0.2,0-0.4-0.1-0.6-0.2c-1.1-0.5-1.7-1.5-1.5-2.5s1-1.8,2.1-1.9
		c0.4,0,0.9,0,1.4,0.1s1,0.2,1.6,0.3C1491.8,305.2,1492.3,305.3,1492.7,305.4L1492.7,305.4z"/>
</g>
<g>
	<g>
		<defs>
			<rect id="SVGID_1_" x="1.6" y="10" width="1936" height="3187.6"/>
		</defs>
		<clipPath id="SVGID_2_">
			<use xlink:href="#SVGID_1_"  style="overflow:visible;"/>
		</clipPath>
		<g class="st8">
			<g>
				<g>
					<path class="st9" d="M2083.6,718.9c-2.6,2-17-11.7-19.5-9.8c-2.6,2,6.4,19.6,3.9,21.4c-2.7,2-16.7-12.1-19.1-10.4
						c-2.9,2,5.5,20,3.2,21.6c-4,2.6-16.5-12.5-17.8-11.9c-1.8,0.8-2,0.5,2.1-2.6c1.5-1.2,15.2,13,17.3,11.4
						c1.6-1.2-8.4-18.2-6.4-19.7c1.7-1.3,15.3,13,17.2,11.6c1.7-1.3-8.2-18.3-6.3-19.8c2.6-2,17,11.7,19.6,9.8
						c2.7-2-6.5-19.6-3.9-21.6c2.8-2.1,17.2,11.6,19.6,9.8c2.9-2.2-6.2-19.9-3.9-21.6c3.9-2.9,17.6,11.3,18.9,10.6
						c1.8-1.1,1.6-0.4-2.4,3c-1.5,1.3-16-12.1-18.1-10.3c-1.7,1.4,8.9,18,6.9,19.6c-1.7,1.4-15.8-12.5-17.7-10.9
						C2075.4,700.5,2085.6,717.4,2083.6,718.9z"/>
					<path class="st9" d="M2102.9,707.9c-1.1,0.9-14.7-13.5-17.5-11.7c-1.8,1.2,6.4,19.1,4.1,20.5c-2,1.2-14.1-14.4-16.3-13.1
						c-2.1,1.2,5.4,19.5,3.2,20.7c-2.1,1.2-13.6-14.9-15.8-13.7c-1.4,0.7,6.4,18.8,5.1,19.4c-1.4,0.7-11.6-16.1-12.8-15.5
						c-1.5,0.7,5.8,19,4.6,19.6c-1.6,0.8-11-16.5-12.1-16c-3,1.3-5.8,2.4-4.1,1.2c1.1-0.8,14,14.2,16.8,12.6
						c1.8-1.1-5.9-19.2-3.6-20.6c2-1.1,13.7,14.7,15.9,13.5c2-1.1-5.4-19.4-3.2-20.6c2.1-1.2,13.7,14.8,15.8,13.6
						c1.4-0.8-6.7-18.7-5.4-19.4c1.4-0.8,12.1,15.7,13.4,15c1.5-0.8-6.4-18.8-5.2-19.5c1.6-0.8,11.8,15.9,12.9,15.4
						C2101.8,707.9,2104.7,706.4,2102.9,707.9z"/>
				</g>
				<path class="st10" d="M2201.1,546.3c0.6-1-18-4.6-34.4,15.3c-7.1,8.6-0.9,31.5-11,42.7c-8.1,9-31.4,5.3-41.3,15.4
					c-8.7,8.9-4.4,32.2-14.4,41.7c-9.2,8.7-32.2,3.1-42.5,12.1c-18.9,16.8-27.4,48.9-49.7,65.7c-20.7,15.5-53.9,15-76.7,30.1
					c-21.9,14.5-34.2,45.3-57.4,59.1c-22.8,13.6-55.8,9.7-79.4,22.3c-23.7,12.7-38.7,42.3-62.6,53.7c-24.7,11.9-57.4,5.4-82,16.1
					c-25,10.9-42.6,39.4-67.7,49.1c-25.4,9.8-57.5,0.7-83.1,9.3c-25.7,8.6-45.8,35.4-71.9,42.7c-26,7.4-57.1-4.9-83.6,1.2
					c-29.7,6.7-56,31.8-86.9,36.8c-29.7,4.8-62.6-10.7-94.1-7.6c-29.6,2.9-58.8,24.6-90.7,26c-29.6,1.3-60.7-17.6-92.7-17.7
					c-29.6,0-60.7,18.9-92.7,17.7c-30.9-1.1-60.5-21.7-89.8-22.7c-31.2-1-62,17.7-91.1,16.9c-31.6-0.8-61.4-21-90.2-21.4
					c-32.2-0.4-62.5,19.1-90.6,19.4c-33.5,0.4-64.6-18.2-91.2-16.4c-18.4,1.2-33.3,22.3-49.1,24.5c-18.1,2.5-38.5-13.4-54.2-9.4
					c-17.2,4.4-27.1,28.3-42.6,34.6c-15.7,6.4-39.3-3.9-54.7,4.6c-14.3,7.9-18.7,33.5-33.9,43.3c-8.3,5.3-27.6-5.5-36.4,0.4
					c-8.3,5.5-5.9,27.5-14.6,33.3c-8.3,5.6-27.7-5-36.4,0.9c-8.3,5.6-5.9,27.6-14.6,33.3c-8.3,5.6-27.7-5.2-36.4,0.5
					c-9.8,6.4-9.2,29.4-19.4,35.8c-9.9,6.3-30.5-3.9-40.7,2.4c-10.1,6.2-10.1,29.2-20.3,35.3c-10.2,6.1-30.5-4.7-40.7,1.2
					c-10.4,6-11.1,28.9-21.4,34.6c-12.9,7.2-34.8-3.2-47.1,3.3c-13.2,7-17,31-29.2,37.1c-13.7,6.9-35.3-4.3-47.2,1.4
					c-14.7,7.1-19.5,30.9-30.6,36c-24.7,11.3-49.4,0.7-49.1,0.8c-13.8,10-17.6,36-33.2,45.3c-14.7,8.8-39.6,0.2-55.7,8.3
					c-15.3,7.8-23,32.9-39.5,40.1c-15.8,6.8-39.4-4.9-56.3,1.3c-16.2,5.9-29,11-46.1,16.4c22.8-5.1,46.7,9,68.1,3.7
					c22.7-5.7,39.5-30.4,60.7-36.4c22.5-6.3,49.8,6,70.8-0.5c22.4-7,37.8-32.7,58.5-39.8c22.2-7.6,50.2,3,70.7-4.7
					c0.5-0.4,5.2-23.1,25.6-31.4c9.2-3.7,27.6,9.9,40.1,4.7c9.9-4.2,13.1-26.8,24.8-31.9c10.2-4.4,28.9,8.8,40.2,3.7
					c10.3-4.6,13-27.3,24.1-32.5c19.6-8.9,48.3-0.8,69-10.9c19.7-9.6,31.1-37.2,51.2-47.5c19.9-10.1,48.8-3,68.6-13.2
					c20.1-10.4,31.1-38.1,50.6-48.2c20.5-10.5,49.3-3.3,68.6-12.8c19.3-9.5,29.9-36.2,48.6-44.4c19.4-8.5,45.9,1.9,65.5-5.1
					c19.5-7,33.5-31.9,54.1-37.4c19.6-5.3,44.2,9.2,65.5,5.4c19.7-3.6,37.5-26,59.3-28.4c28.8-3.3,61.7,13.7,95.3,11.8
					c29.5-1.6,60.1-22.3,93.2-23c29.9-0.6,61.4,18.7,94.2,18.8c30.1,0.1,61.7-19.2,94.2-18.6c30.3,0.5,61.2,20.9,93.6,21.8
					c32.8,1,64.6-18.3,95.1-18.7c32.9-0.4,65.2,17.9,95.6,15.9c32.8-2.2,62.3-24.7,92.6-28.7c32.5-4.2,66.9,9.8,96.9,3.5
					c31.9-6.7,57.6-33.4,87.2-42.3c26-7.9,57.9,1.9,83.1-7.7c25.3-9.6,42.7-38.1,67.3-49.3c24.5-11.1,57.3-5.4,81.5-18
					c23.8-12.4,38-42.6,61.6-56.3c23.1-13.4,56.4-10.5,79.6-25c22.4-14,34.1-45,56.1-60.2s55.2-15,76.2-30.9
					c21.5-16.3,30.2-48.3,50.2-65.1c21-17.6,54-20.9,72.7-38.6c20.2-19.2,24.9-52.1,41.6-70.9c8.9-9.9,32.1-6.7,40-16.1
					c8.7-10.4,1.4-32.6,8.7-42.1c8.5-11,31.8-9.7,38.5-19.2c8.5-12-0.6-33.6,5.2-42.7c13-20.2,21.9-35,22.4-35.3
					c-6.3,4.6-1.3,24.9-7.4,28.9c-6.5,4.3-23.2-8.5-29.5-4.8c-6.7,3.9-3.9,24.7-10.5,28c-6.9,3.5-22.1-10.9-28.8-7.9
					C2208.4,522.3,2208,543.6,2201.1,546.3z"/>
				<path class="st11" d="M2231.3,532.9c0.6-1.1-18.8-3.7-35.2,17.1c-7.1,9-0.6,32-10.6,43.7c-8.1,9.4-31.7,6.5-41.6,17.1
					c-8.7,9.4-4.1,32.7-14.2,42.7c-9.3,9.1-32.6,4.3-43,13.7c-18.9,17.5-27,50-49.3,67.5c-20.7,16.2-54.3,16.6-77.1,32.4
					c-21.9,15.2-34,46.5-57.2,61c-22.9,14.3-56.3,11.3-80,24.5c-23.8,13.4-38.6,43.5-62.5,55.6c-24.5,12.4-57.3,6.5-81.6,17.8
					c-24.8,11.5-41.7,40.3-66.5,50.5c-25.2,10.4-57.4,1.9-82.8,10.9c-25.5,9.1-45,36.2-70.9,44c-25.8,7.8-57-4-83.4,2.4
					c-29.2,7.1-55,32.4-85.5,37.6c-29.3,5-62-10.3-93.1-7c-29.3,3.1-58.1,24.9-89.6,26.4c-29.3,1.4-60.2-17.4-91.8-17.4
					c-29.3,0-60.1,19-91.7,17.8c-30.6-1.1-59.7-21.7-88.8-22.6c-30.8-0.9-61.1,17.9-89.9,17.3c-31.1-0.6-60.8-20.5-89.2-20.6
					c-31.6-0.1-61.3,19.8-89.2,20.6c-32.5,0.9-63.5-17.1-90.4-14.8c-19.9,1.6-36.1,23.3-53.6,26.1c-19.5,3.1-41.8-12.1-59.2-7.4
					c-18.5,5-29.9,29.5-47.3,36.4c-17.2,6.8-42.1-3.3-59.4,5.5c-16,8.2-23,34.4-40,44.4c-9.5,5.5-29.2-5.6-39.2,0.4
					c-9.5,5.7-9.1,28.3-19,34.3c-9.5,5.7-29.3-5.1-39.2,0.9c-9.5,5.8-9.1,28.4-19,34.3c-9.5,5.7-29.3-5.3-39.2,0.5
					c-10.9,6.4-12.2,29.9-23.4,36.4c-11.1,6.4-31.9-4.3-43.2,2c-11.2,6.3-13.1,29.6-24.4,35.7c-11.4,6.1-31.9-5.1-43.2,0.8
					c-11.5,6-14.1,29.3-25.4,35c-14,7-36.3-3.8-49.6,2.5c-14.3,6.9-19.9,31.1-33.1,37c-14.9,6.8-36.8-5-49.7,0.6
					c-15.9,6.9-22.5,30.8-34.5,35.8c-26.7,10.9-51.5-0.5-51.3-0.4c-15.1,9.4-21.3,35.4-38,44c-15.8,8.2-40.8-1.6-58,5.9
					c-16.4,7.2-26.1,32.2-43.6,38.6c-16.8,6.2-40.5-6.4-58.3-0.8c-17.2,5.4-31.4,10-49.4,14.8c24-4.5,48.9,10.1,71.5,5.2
					c23.9-5.2,42.6-29.6,65-35.1c23.8-5.9,51.7,7.1,73.9,0.9c23.6-6.5,40.9-32,62.9-38.8c23.5-7.2,52.1,4,73.9-3.3
					c0.6-0.4,6.6-23.1,28.4-31.1c9.8-3.6,28.4,10.4,41.7,5.4c10.6-4,15.2-26.8,27.7-31.7c10.9-4.3,29.7,9.3,41.8,4.4
					c11-4.5,15.1-27.3,27-32.3c21.3-8.8,51.1-0.3,73.7-10.4c21.4-9.6,35.1-37.4,57.1-47.7c21.6-10.1,51.7-2.7,73.3-12.9
					c21.8-10.4,35.1-38.5,56.4-48.6c22.2-10.6,52.3-3.1,73.3-12.8c20.9-9.6,33.4-36.6,53.6-45c21-8.7,48.7,1.6,69.7-5.7
					c21.1-7.4,36.5-32.7,58.4-38.6c21.2-5.7,47.3,8.3,69.9,3.9c21.3-4.1,40.2-26.9,63.3-29.7c29.4-3.7,62.7,12.9,96.2,10.7
					c29.9-2,60.5-23,93.8-23.9c30.2-0.9,62.1,18.3,95.1,18.2c30.4-0.1,62.1-19.4,94.9-18.9c30.5,0.5,61.6,20.8,94.4,21.7
					c33,1,65-18.3,95.8-18.7c33.1-0.5,65.7,17.8,96.3,15.8c33-2.2,62.7-24.9,93.1-29c32.8-4.4,67.5,9.3,97.6,2.7
					c32.1-7.1,57.7-34.3,87.1-43.8c26.1-8.5,58.4,0.5,83.7-9.9c25.2-10.3,42.1-39.4,66.7-51.5c24.3-11.9,57.6-7.3,81.6-20.8
					c23.5-13.2,37.1-44,60.6-58.6c22.9-14.2,56.4-12.4,79.5-27.8c22.7-15.1,34.2-46.9,56.5-63.3c22.3-16.3,56.1-17.6,77.4-34.7
					c21.7-17.5,30.1-50.3,50.2-68.3c21.1-18.9,54.6-23.7,73.3-42.7c20.2-20.5,24.3-54.1,40.9-74.3c8.9-10.7,32.6-8.8,40.4-18.9
					c8.6-11.2,0.8-33.6,8-43.8c8.4-11.8,32-11.9,38.6-22.2c8.3-12.9-1.5-34.6,4.2-44.3c12.5-21.7,20.6-37,21.1-37.4
					c-6.5,5.8-0.1,26.1-6.4,31.2c-6.8,5.5-25.3-5-31.9-0.3c-7.1,5.1-3.1,26-9.9,30.3c-7.3,4.6-24.5-7.9-31.7-4
					C2237.9,507.8,2238.6,529.4,2231.3,532.9z"/>
				<path class="st12" d="M2271.6,507.9c0.7-1.2-19.9-2.2-36.1,20.2c-7,9.7,0.1,32.9-9.9,45.4c-8,10.1-32.1,8.5-42,19.9
					c-8.7,10.1-3.6,33.7-13.7,44.4c-9.3,9.8-33.2,6.2-43.6,16.3c-18.8,18.7-26.4,51.9-48.6,70.5c-20.7,17.3-54.8,19.1-77.8,36
					c-22.1,16.3-33.8,48.3-57.2,63.8c-23.1,15.3-57.2,13.6-81,27.9c-24.1,14.5-38.6,45.3-62.7,58.4
					c-52.6,28.1-112.2,35.9-163.1,58.5c-53.2,23.6-99.4,62.2-154.1,79.2c-53.6,16.6-113.4,11-172,20.8
					c-53.8,9-108.4,34.6-169.1,37.5c-53.9,2.6-111-16.8-172.3-19.3c-30.4-1.1-60.6,17.5-89.4,16.7c-30.6-0.8-59.8-21-88.4-21.4
					c-30.8-0.4-60.5,19.1-88.9,19.4c-31.2,0.3-61.4-18.6-89.3-17.4c-31.8,1.4-60,22.9-87.2,25.7c-21.5,2.1-44.4-14.5-63.7-11.1
					c-20.9,3.7-36.5,27.3-55.8,32.6c-19.9,5.5-45.4-6.7-64.6,0.6c-18.8,7.2-29.9,33.2-49,42.2c-17.9,8.4-44.8,0-63.8,10.1
					c-10.6,5.6-12.3,28.7-23.5,34.7c-10.6,5.7-30.8-5.6-41.9,0.5c-10.6,5.8-12.1,28.9-23.1,35c-10.7,5.8-30.9-5.5-41.9,0.5
					c-10.7,5.8-12.3,28.9-23.4,34.8c-11.9,6.4-33.2-4.6-45.4,1.8c-12.1,6.3-15.3,30-27.6,36.1c-12.2,6.2-33.2-5.3-45.5,0.7
					c-12.4,6-16.2,29.6-28.5,35.4c-12.5,5.9-33.2-6.1-45.5-0.6c-15,6.8-21.7,31.2-35.8,37.3c-15.3,6.6-37.7-5.3-51.7,0.5
					c-15.8,6.5-23.5,30.6-37.2,35.9c-16.9,6.6-38.9-6.1-51.7-1.4c-28.4,10.4-37.1,33.8-37,33.9c-16.1,8.7-41.7-0.5-59.3,7.4
					c-16.7,7.6-26.6,32.8-44.5,39.7c-17.2,6.6-41.4-5.7-59.7,0.2c-17.6,5.7-30,29.8-48.4,34.9c-17.8,4.9-39,9.8-57.6,14.1
					c24.9-4,47.7-27.7,71.1-32.1c24.8-4.7,52.8,9.6,76.1,4.6c24.7-5.4,44.2-30,67.4-35.7c24.6-6.1,53.3,6.7,76.2,0.3
					c24.5-6.8,42.5-32.4,65.2-39.4c0.7-0.4,19.9,14.2,42.9,6.6c10.3-3.4,16.4-26.1,30.5-30.9c11.1-3.8,29.9,10.4,43.1,5.7
					c11.4-4.1,16.9-26.9,29.8-31.6c11.6-4.3,30.6,9.5,43.2,4.7c22.7-8.5,39.3-36.1,63.6-46.1c22.9-9.4,54-1.2,77.7-11.3
					c23.1-9.9,38.7-38,62-48.2c23.4-10.2,54.6-2.5,77.5-12.6c23.8-10.4,39.3-38.6,62-48.3c22.5-9.6,51.9-0.5,73.8-9
					c22.6-8.8,38.3-35.4,60.7-42.9c22.7-7.6,51.1,4.2,74.3-2c22.8-6.1,41.5-30.6,65.4-35.3c22.8-4.5,49.5,11,73.9,7.8
					c30.2-4,60.1-26.7,93.9-29.3c30.5-2.3,63.7,15.5,97.4,14.3c30.7-1.1,62.4-21.4,96-21.6c30.8-0.2,62.9,19.5,96.4,19.9
					c30.9,0.4,63.5-18.5,96.8-17.5c33.4,1,65.5,20.8,96.5,20.4c33.5-0.5,64.9-21.4,95.8-23.5c33.5-2.4,67.6,13.8,98.2,9.4
					c33.2-4.7,61.2-29.9,91.4-37c32.5-7.7,68.9,2,98.3-8.5c26.3-9.4,44.7-38,70.1-49.5c25.2-11.4,58.8-6.3,83.5-19.7
					c24.2-13.1,38.5-44,62.5-58.8c23.3-14.4,57.3-13,80.8-28.9c22.7-15.3,34.3-47.3,57.4-63.8c23.2-16.7,58.2-18.5,81.1-36.6
					c22.7-18,32.5-51.6,54.2-70.6c22-19.3,56.7-24.6,77-44.6c21.2-20.8,27.2-55.3,45.8-76.2c20.1-22.6,53.7-32.8,69.9-55
					c8.9-11.9,1.2-34.9,8.9-46.2c8.5-12.5,32.7-13.9,39.7-25.3c8.1-13.2-1.6-35.4,4.7-46.8c7.9-14.3,31.8-18.1,37.1-28.9
					c11.7-24,15.9-36.4,16.5-36.9c-6.6,7.8-27.8,2-34.3,8.9c-7,7.4-0.2,28.2-7,34.6c-7.5,7-27.7-1.3-35,4.7
					c-7.9,6.5-3.7,27.9-11.4,33.4C2288.9,496.8,2279.6,502.9,2271.6,507.9z"/>
				<path class="st13" d="M2304.8,485.8c0.7-1.4-20.7-0.6-36.7,23.2c-6.9,10.3,0.7,33.7-9.2,47c-8,10.8-32.4,10.4-42.3,22.6
					c-8.7,10.7-3.2,34.6-13.3,46c-9.3,10.5-33.7,8-44.2,18.7c-18.7,19.7-25.9,53.6-48.1,73.2c-20.8,18.3-55.3,21.5-78.3,39.3
					c-22.2,17.2-33.6,49.9-57.1,66.4c-23.3,16.3-58,15.9-81.9,31.1c-24.3,15.5-38.7,47-62.9,61.1c-24.1,13.8-57.4,9.8-80.9,22.3
					c-24.4,13-39.8,42.8-64,54.4c-24.8,11.9-57.6,5.2-82.5,15.6c-25.2,10.5-43.5,38.6-69.2,47.5c-25.6,8.9-57.3-1.6-83.7,5.7
					c-28.8,8-53.7,33.9-84,39.7c-29,5.6-61.9-9.2-92.8-5.5c-29.2,3.4-57.6,25.5-88.9,27.2c-29.3,1.6-60.1-17.1-91.5-16.9
					c-29.3,0.1-59.8,19.2-91.2,18.1c-30.4-1.1-59.5-21.6-88.3-22.3c-30.6-0.7-60.5,18.4-89.2,18.2c-30.8-0.2-60.5-19.6-89-19.1
					c-31,0.6-59.9,21.2-88.1,22.8c-31.4,1.8-62.6-15.3-90.2-12.1c-23,2.6-41.9,25.2-63,29.3c-22.3,4.3-48.3-9.7-69.4-3.7
					c-21.4,6-36.3,31.5-57.3,39.3c-20.4,7.5-48.1-2.2-69.1,7c-19.6,8.6-31.4,35.8-52.2,46c-11.8,5.7-32.5-5.9-44.8,0.2
					c-11.8,5.8-15.1,29.4-27.3,35.5c-11.8,5.9-32.6-5.6-44.8,0.5c-11.8,5.9-15.2,29.5-27.4,35.5c-11.9,5.9-32.6-5.8-44.8,0.1
					c-13,6.3-17.8,30.3-31.1,36.7c-13.2,6.2-34.7-5.3-48.1,0.8c-13.3,6.1-18.6,30-32,35.9c-13.5,6-34.7-6.1-48.1-0.4
					c-13.6,5.8-19.6,29.6-33,35c-16.1,6.6-39.1-5.3-54.3,0.6c-16.5,6.4-25.4,30.7-40.4,36.2c-17,6.2-39.6-6.5-54.2-1.5
					c-18.1,6.3-28.1,30.2-41.7,34.7c-30.4,9.9-55.6-3.1-55.4-3c-17.2,7.9-27.4,33.5-45.9,40.7c-17.7,6.9-42.6-5.1-61.4,1.1
					c-18.1,5.9-31.1,30.2-50.2,35.5c-18.4,5.1-42.1-9.2-61.3-4.8c-18.7,4.3-35.2,8-54.5,11.7c26.2-3.4,52.8,12.3,77.4,8.5
					c26.1-4.1,48.1-27.8,72.6-32.3c26-4.8,55,9.3,79.3,4.1c25.9-5.6,46.5-30.4,70.7-36.3c25.8-6.3,55.6,6.2,79.5-0.3
					c0.8-0.4,9.3-23,33.6-30.2c10.9-3.2,29.7,11.6,44.6,7c11.8-3.6,18.9-26.4,32.9-30.9c12.1-3.9,31.1,10.5,44.7,5.9
					c12.3-4.1,18.8-27,32.2-31.7c24.3-8.3,56.4,1,82.6-8.8c24.6-9.2,42.9-37.2,68.4-47.3c24.8-9.8,57.2-1.6,82.3-11.7
					s42.8-38.5,67.5-48.5c25.5-10.4,57.9-2.4,82.2-12.2c24.2-9.7,40.8-37.1,64.2-45.7c24.2-8.9,54.5,1.2,78.5-6.5
					c24.3-7.9,43-33.9,67.6-40.4c24.4-6.5,53.5,6.8,78.7,1.7c24.4-4.9,46.1-28.5,72-32c31.2-4.3,65.9,11.6,100.2,8.7
					c31.3-2.6,62.8-24.2,97.2-25.7c31.4-1.3,64.8,17.4,99.1,17c31.5-0.4,64.4-19.9,98.6-19.5c31.6,0.4,64,20.6,98.2,21.6
					c33.9,1,66.7-18.3,98-18.7c34-0.5,67.4,17.8,98.6,15.6c34-2.4,64.3-25.3,95.2-29.9c33.7-5,69.5,8,99.8,0.4
					c32.9-8.2,58-36.7,87.3-48.1c26.4-10.2,60.1-3.8,85.7-16.5c25.1-12.5,40.6-43.3,65.3-57.9c24-14.2,58.3-12.8,82.3-28.9
					c23.1-15.5,35-47.8,58.4-64.9c22.4-16.3,56.8-17.7,79.8-35.3c23.7-18.2,35.2-52.6,58.6-72.5c23.1-19.6,58.9-25.4,81-46.2
					c22.3-21.1,30.1-56.4,50.6-78.2c21.3-22.6,56.2-32.7,74.8-55.6c19.9-24.6,22.3-60.7,38-85c8.8-13.2,33.6-15.7,41.1-28.3
					c8.3-13.8-1.3-36.8,5.5-49.5c7.8-14.6,32.1-19.5,38.1-32.1c7.5-15.8-4.4-37.8,0.5-49.8c10.7-26.3,16.3-43.8,16.9-44.4
					c-6.6,9.9,2.9,30.4-3.6,39.1c-7.1,9.5-29.5,6.1-36.6,14.4c-7.7,9-1,30.6-8.7,38.4c-8.4,8.5-30.1,2-38.2,9.2
					C2310.3,456.5,2313.4,479.1,2304.8,485.8z"/>
				<path class="st14" d="M1096.5,1137.7c33.7,1,66,20.9,97.4,20.5c33.8-0.4,65.5-21.2,96.7-23.3c33.8-2.3,68.1,14,99,9.7
					c33.5-4.6,62-29.6,92.5-36.6c32.9-7.5,69.5,2.4,99.1-7.8c26.3-9.1,45-37.5,70.4-48.7c25.3-11.2,58.7-5.7,83.4-18.7
					c24.3-12.8,38.7-43.6,62.8-58.1c23.4-14.1,57.3-12.5,80.8-28.1c22.7-15.1,34.5-46.9,57.7-63.2c23.2-16.4,58.1-17.8,80.9-35.6
					c22.7-17.6,32.7-51,54.5-69.7c22.1-18.9,56.7-23.7,77.2-43.3c21.3-20.4,27.7-54.6,46.5-75.2c20.3-22.1,54-31.7,70.5-53.4
					c9-11.6,1.7-34.6,9.5-45.7c8.6-12.2,32.8-13,40-24.2c8.3-12.9-1.1-35.2,5.4-46.4c8.1-14,32.1-17.2,37.5-27.8
					c12.1-23.6,16.8-36.2,17.3-36.5c-2.4,2.7-19.6-7.5-21.9-5c-2.4,2.6,9.3,18.7,6.9,21.2c-2.5,2.6-18.9-8.7-21.4-6.3
					c-2.5,2.5,8.5,19,6,21.4c-2.6,2.5-20.2-7.4-22.8-5.1c-5.6,10.7,1.4,38.2-12.2,59.5c-9,14-35.8,18.8-48.2,35.9
					c-10.4,14.3-6.4,41.3-19.2,57c-11.4,14-38.7,15.6-52,30.2c-12.4,13.5-11.6,40.8-25.6,54.3c-19.6,19.4-53.7,24.1-75.6,42.9
					c-21.1,18.2-30.8,51.2-53.4,68.6c-22.3,17.2-56.8,18.1-79.9,34.3c-23.3,16.3-35.9,48.3-59.5,63.4
					c-24.2,15.5-58.6,13.7-82.4,27.7c-22.8,13.4-35.5,43.1-57.6,55.2c-23.1,12.6-54.9,7-77.6,18.2c-23.4,11.5-38.7,40-62.2,49.9
					c-23.8,10-54.8,1-79.2,9.4c-24.1,8.3-42.9,34.6-68.2,41.4c-27.6,7.5-60.3-5.2-89.7,0.2c-28,5.1-53.9,28.7-83.8,32
					c-28.2,3.1-58.8-14.1-88.9-12.5c-28.3,1.5-56.8,21.8-87,22c-28.3,0.1-57.2-19.9-87.3-20.9c-30.9-1.1-61.4,17.6-90.6,17
					c-31-0.6-60.8-20.6-89.9-20.5c-31.1,0-60.9,20-89.8,20.9c-31.3,0.9-62.2-17.2-91-15.1c-31.4,2.2-59.3,24.7-87.7,28.4
					c-24.9,3.2-52-12.1-75.3-7.3c-24.1,5-42.8,29.9-66.2,36.6c-23.1,6.7-52.2-4.3-75.5,4.2c-22.3,8.1-37.7,35.2-60.9,45
					c-21.6,9.1-51.7,0.9-74.8,11.4c-13.4,6-18.9,30-32.8,36.4c-13.4,6.1-35.2-5.4-49,0.9c-13.4,6.1-18.9,30.2-32.8,36.5
					c-13.5,6.1-35.2-5.5-49,0.7c-13.5,6.1-19.3,30.1-33.2,36.1c-14.6,6.4-37.2-5.1-52.2,1.2c-14.8,6.3-22.2,30.6-37.1,36.7
					c-15,6.1-37.3-6-52.2-0.1c-15.1,6-23.2,30.1-38.1,35.7c-15.3,5.8-37.3-7-52.2-1.7c-17.9,6.5-29,31-45.9,36.7
					c-18.3,6.2-42-6.7-58.7-1.5c-18.9,6-31,30.1-47.3,34.9c-20.2,5.9-43.5-7.9-58.6-3.7c-33.7,9.2-47.6,32.5-47.5,32.6
					c-8.4,3.1-23.5-12.4-32.2-9.5c-8.5,2.9-11,24.3-19.7,27c-8.5,2.7-22.8-13.5-31.5-11c-8.6,2.5-12.1,23.7-20.9,26.1
					c-8.7,2.3-18.9,4.8-27.8,6.9c17.8-3,32.4-25.6,49.4-28.8c17.7-3.4,38.9,12.3,55.9,8.7c17.7-3.7,30.7-26.7,47.5-30.6
					c17.6-4.1,39.4,10.7,56.2,6.5c17.5-4.5,29.5-27.9,46.1-32.5c0.8-0.4,20.9,14.4,46.2,6.9c11.4-3.4,19.2-26.3,34.8-31.2
					c12.3-3.9,31.8,10.4,46.3,5.6c12.6-4.2,19.8-27.2,33.9-32.1c12.8-4.4,32.6,9.4,46.4,4.4c24.8-8.7,43.9-36.8,70.4-47.2
					c25.1-9.8,58-1.9,83.8-12.6c25.3-10.4,43.1-39.2,68.4-50.1c25.5-10.9,58.6-3.9,83.5-14.7c25.9-11.2,43.5-40.3,67.9-50.8
					c23.6-10.1,54-1.6,76.6-10.6c23.6-9.4,40-36.5,63.2-44.6c23.7-8.3,53.3,2.8,77.2-4c23.8-6.8,43.2-31.8,67.9-37
					c23.9-5,51.7,9.9,77.1,6.4c30.6-4.3,60.6-27.3,94.7-30.1c30.9-2.5,64.4,15.1,98.4,13.8c31-1.2,63-21.6,96.9-21.9
					c31.2-0.3,63.6,19.4,97.4,19.8C1030,1155.6,1062.8,1136.8,1096.5,1137.7z"/>
				<path class="st15" d="M2307.8,487.3c0,0-14.6-12.5-14.8-12.1c-0.1,0.2,16.6,10.4,16.5,10.6s-17.1-9.6-17.2-9.4
					c-0.1,0.2,16.6,10.4,16.5,10.7c-0.1,0.2-3,3.4-3.1,3.6c2.1-1.6-7.5-18.9-5.4-20.6c2.1-1.6,16.4,11.9,18.5,10.2
					c2-1.7-8.4-18.4-6.4-20.2c2-1.7,16.8,11.4,18.9,9.6c2-1.7-9.3-17.9-7.3-19.7c0.1-0.3,15.7,11.2,15.9,10.9
					c0.1-0.3-16.9-9.9-16.8-10.1c0.1-0.3,17.5,8.8,17.7,8.5c0.1-0.3-17-9.8-16.8-10.1c0.1-0.3,2.5-3.3,2.7-3.6
					c-2,1.9,8.9,18.4,6.9,20.2c-2,1.8-17-11.1-19.1-9.3c-2.1,1.8,8.6,18.5,6.5,20.2c-2.1,1.8-16.7-11.6-18.7-9.9
					C2299.8,468.6,2309.9,485.6,2307.8,487.3z"/>
				<path class="st15" d="M1141.6,1160c18.7,0.6,36.7,20.5,54.8,20.7c18.8,0.2,37.1-19.5,55.1-19.8c18.8-0.3,37.8,18.7,55.8,17.9
					c18.8-0.9,35.9-21.6,53.8-23c18.8-1.5,39.1,16.1,56.9,13.9c15-1.8,26.8-23.3,41.1-25.6c14.9-2.4,33,14.1,47.1,11.2
					c14.7-3.1,24.6-25.5,38.7-29.2c14.5-3.8,34.1,10.9,48,6.5c14.2-4.5,21.7-27.9,35.3-33.1c26.6-10.3,60.5-3.9,86.2-16.6
					c25.3-12.6,40.9-43.5,65.8-58.3c24.1-14.4,58.6-13.2,82.7-29.4c23.2-15.6,35.2-48.1,58.7-65.4c22.5-16.5,57-18,80.2-35.8
					c24-18.5,35.8-53.3,59.5-73.5c23.4-20,59.6-26.1,82-47.3c22.6-21.4,30.7-57.1,51.5-79.3c21.6-23,56.8-33.5,75.7-56.8
					c20.2-25,22.7-61.5,38.6-86.3c9-13.5,33.9-16.4,41.5-29.2c8.4-14.1-1.1-37.4,5.8-50.3c7.9-14.9,32.3-20.2,38.3-33.2
					c7.5-16.2-4.4-38.4,0.5-50.6c10.8-27.1,16.3-44.8,16.8-45.2c-5.1,8,6.2,26.3,1.1,33.6c-5.5,7.8-26.7,3.5-32.1,10.5
					c-5.9,7.5,3.4,27-2.4,33.7c-6.2,7.2-26.9,0.7-33.1,7.1c-6.6,6.9,0.6,27.2-5.9,33.2c-0.1,0.3-15.6-11.2-15.8-11
					c-0.1,0.3,17,9.8,16.8,10.1c-0.1,0.3-17.5-8.8-17.7-8.5c-0.1,0.3,16.9,9.8,16.8,10.1c-0.1,0.3-2.5,3.3-2.7,3.6
					c2.6-2.3-7.9-19.3-5.3-21.8c2.5-2.4,18.7,9.2,21.2,6.7c2.5-2.4-9-18.7-6.5-21.3c2.4-2.5,19.1,8.4,21.5,5.8
					c2.4-2.5-10.1-18-7.7-20.6c-0.5,0.3-7.4,16.2-19.5,39.8c-5.5,10.6,5,32.5-3.2,46.6c-6.5,11.2-30.5,13.1-38.8,26
					c-7.2,11.2,1.1,33.9-7.5,46.1c-7.8,11-32,10.8-41,22.5c-16.5,21.8-20.2,56.4-40.5,78.6c-18.9,20.5-53.1,27.4-74.5,47.8
					c-20.5,19.5-28.8,53.4-50.9,72.3c-21.8,18.6-56.5,21.7-79.2,39.3c-22.9,17.8-34.4,50.7-57.6,67.1
					c-23.1,16.3-57.1,15.8-79.8,30.9c-23.5,15.6-36.5,47-59.9,61.2c-24.1,14.5-57.8,11.2-82.1,24.1c-24.7,13.1-41.1,42.8-66.4,54
					c-25.4,11.2-58.3,3.1-84.7,12.2c-29.7,10.3-55.5,38-88.4,45.5c-30.5,6.9-65.9-6.5-99.5-1.9c-30.9,4.2-61.3,27-95,29.2
					c-31.2,2.1-64.4-16.2-98.2-15.8c-31.3,0.4-64,19.7-97.7,18.7s-65.7-21.2-97-21.6c-33.8-0.4-66.3,19.1-97.5,19.4
					c-33.9,0.3-66.8-18.5-97.9-17.3c-34,1.3-65.2,22.8-96.1,25.3c-34,2.8-68.4-13.1-99-8.8c-25.4,3.5-46.4,27.1-70.3,32.1
					c-24.7,5.2-53.5-7.8-77.3-1c-23.9,6.8-41.7,33-65.4,41.3c-23.2,8.1-53.3-1.5-76.9,7.9c-22.6,9-38,36.7-61.6,46.8
					c-24.4,10.6-57.5,3.6-83.4,14.9c-24.8,10.8-42.5,39.7-68,50.6c-25.3,10.8-58.3,3.5-83.6,13.9c-25.8,10.7-44.1,39.2-69.2,49
					c-26.5,10.3-59.3,1.7-84.1,10.4c-13.9,5-20.7,28.2-33.5,32.6c-14.1,4.9-33.8-9.2-46.4-5c-14.6,4.8-22,27.8-34.3,31.7
					c-15.5,4.9-34.9-9.7-46.3-6.3c-25.3,7.6-34.3,30.3-35.1,30.7c-16.7,4.6-38.9-9.8-56.4-5.3c-16.8,4.3-29.3,27.5-46.9,31.6
					c-16.8,3.9-38.3-11.4-56-7.6c-16.9,3.6-30.4,26.3-48.1,29.7c-17,3.2-38.1-12.8-55.8-9.8c-5.6,1.4-7.2,21.9-12.9,23.2
					c-5.6,1.3-15.6-16.6-21.2-15.3c-5.6,1.2-7.3,21.6-13,22.8c-5.7,1.2-15.2-16.9-20.9-15.8s-10.5,2-16.2,3.1
					c19.4-2.5,40.7,14.4,59.3,11.7c19.3-2.8,35.2-25.2,53.7-28.2c19.3-3.2,41.5,12.7,59.9,9.2c19.2-3.6,34.2-26.6,52.5-30.4
					c19.2-4,42.1,11,60.3,6.8c1-0.4,12-23,39.4-29.9c12.4-3.1,32.1,12,48.9,7.5c13.3-3.6,22.7-26.5,38.6-31
					c13.7-3.9,33.7,10.7,49.1,6.1c13.9-4.1,22.7-27.3,37.7-32.1c27.3-8.4,61.9,0.9,91.2-9.2c27.6-9.5,49.3-38.1,77.8-48.6
					c27.8-10.3,62.8-2.5,90.7-13.3c28.1-10.8,49-40,76.4-50.8c28.5-11.2,63.6-4.1,90.5-14.8c26-10.2,44.2-38.2,69.1-47.5
					c26-9.6,58-0.2,83.3-8.6c26-8.7,46.2-35.4,72.2-42.6c26.1-7.3,57.1,5.2,83.8-0.6c26.2-5.6,49.3-29.7,76.7-33.8
					c32-4.8,67.6,10.7,102.4,7.5c32.1-3,64.2-24.8,99.2-26.5c32.2-1.5,66.3,17,101.4,16.5c32.2-0.5,65.7-20.1,100.8-19.7
					C1072.9,1158.3,1106.6,1159,1141.6,1160z"/>
			</g>
		</g>
	</g>
</g>
</svg>
